<?xml version="1.0" encoding="UTF-8"?>
<svg id="Layer_1" data-name="Layer 1" xmlns="http://www.w3.org/2000/svg" viewBox="0 0 513 539">
  <defs>
    <style>
      .cls-1 {
        fill: #f26052;
      }
    </style>
  </defs>
  <path class="cls-1" d="m191.38,339.02c4.27,5.56,10.18,9.79,16.21,13.53,25.4,15.74,58.49,19.99,86.58,9.22,13.63-5.23,26.03-14.42,35.03-25.9,8.62-11,15.43-26.39,11.67-40.54-3.27-12.3-15.06-21.1-27.96-19.8-15.77,1.59-25.89,18.01-36.54,27.87-7.18,6.64-15.51,11.69-25.35,13.04-26.92,3.68-55.36-10.63-68.25-37.29-3.66-7.3-5.72-15.7-6.46-24.33-.56-6.77-.45-13.71.62-20.58-2.57,6.49-4.21,13.41-5.05,20.51-1.04,9.06-.65,18.57,2.12,27.81,8.74,29.26,36.09,51.55,66.46,54.49,12.8,1.24,26.1-1.08,37.67-6.71,6.29-3.06,12.07-7.2,16.98-12.18,2.78-2.82,5.17-5.87,7.54-9.03,2.81-3.75,9.32-12.95,14.86-8.91,4.75,3.48,1.58,11.18-.27,15.3-2.71,6.04-6.6,11.41-11.23,16.11-6.98,7.08-15.43,12.82-24.43,17-21,9.75-47.99,8.4-72.05-.05-6.38-2.36-12.77-5.1-18.13-9.54Z"/>
  <path class="cls-1" d="m237.99,235.59c4.51-3.66,9.6-6.45,14.83-8.22,5.87-1.99,11.94-2.44,17.33-1.05,8.86,2.18,17.03,6.81,26.18,11.28,4.65,2.18,9.45,4.58,16.09,5.65,6.39,1.59,17.26-2.18,21.33-8.72,6.33-7.96,4.66-19.7,1.11-26.15-19.25-37.97-77.8-46.35-111.82-25.54-7.65,4.68-13.23,10.65-18.83,17.52-20.53,25.15-18.06,64.61,1.17,86.63,3.67,4.69,7.72,9.02,12.23,12.7-3.36-4.73-6.11-9.81-8.44-14.99-12.25-25.76-7.74-53.96,10.18-72.15,16.29-16.54,40.26-20.93,62.27-15.27,12.34,3.19,28.03,9.59,35.2,20.83,2.26,3.5,2.29,8.38-2.86,8.46-3.23.07-7.82-1.11-12.39-2.45-9.25-2.72-19.43-6.26-30.32-6.58-7.51-.27-14.6,2.15-20.35,5.83-5.15,3.3-9.5,7.47-12.9,12.21Z"/>
</svg>