<?xml version="1.0" encoding="UTF-8"?>
<svg id="Layer_1" data-name="Layer 1" xmlns="http://www.w3.org/2000/svg" viewBox="0 0 1115 539">
  <defs>
    <style>
      .cls-1 {
        fill: #efede6;
      }
    </style>
  </defs>
  <g>
    <path class="cls-1" d="m191.38,339.02c4.27,5.56,10.18,9.79,16.21,13.53,25.4,15.74,58.49,19.99,86.58,9.22,13.63-5.23,26.03-14.42,35.03-25.9,8.62-11,15.43-26.39,11.67-40.54-3.27-12.3-15.06-21.1-27.96-19.8-15.77,1.59-25.89,18.01-36.54,27.87-7.18,6.64-15.51,11.69-25.35,13.04-26.92,3.68-55.36-10.63-68.25-37.29-3.66-7.3-5.72-15.7-6.46-24.33-.56-6.77-.45-13.71.62-20.58-2.57,6.49-4.21,13.41-5.05,20.51-1.04,9.06-.65,18.57,2.12,27.81,8.74,29.26,36.09,51.55,66.46,54.49,12.8,1.24,26.1-1.08,37.67-6.71,6.29-3.06,12.07-7.2,16.98-12.18,2.78-2.82,5.17-5.87,7.54-9.03,2.81-3.75,9.32-12.95,14.86-8.91,4.75,3.48,1.58,11.18-.27,15.3-2.71,6.04-6.6,11.41-11.23,16.11-6.98,7.08-15.43,12.82-24.43,17-21,9.75-47.99,8.4-72.05-.05-6.38-2.36-12.77-5.1-18.13-9.54Z"/>
    <path class="cls-1" d="m237.99,235.59c4.51-3.66,9.6-6.45,14.83-8.22,5.87-1.99,11.94-2.44,17.33-1.05,8.86,2.18,17.03,6.81,26.18,11.28,4.65,2.18,9.45,4.58,16.09,5.65,6.39,1.59,17.26-2.18,21.33-8.72,6.33-7.96,4.66-19.7,1.11-26.15-19.25-37.97-77.8-46.35-111.82-25.54-7.65,4.68-13.23,10.65-18.83,17.52-20.53,25.15-18.06,64.61,1.17,86.63,3.67,4.69,7.72,9.02,12.23,12.7-3.36-4.73-6.11-9.81-8.44-14.99-12.25-25.76-7.74-53.96,10.18-72.15,16.29-16.54,40.26-20.93,62.27-15.27,12.34,3.19,28.03,9.59,35.2,20.83,2.26,3.5,2.29,8.38-2.86,8.46-3.23.07-7.82-1.11-12.39-2.45-9.25-2.72-19.43-6.26-30.32-6.58-7.51-.27-14.6,2.15-20.35,5.83-5.15,3.3-9.5,7.47-12.9,12.21Z"/>
  </g>
  <path class="cls-1" d="m871.63,366.35c-12.9,0-23.44-1.61-31.61-4.84-8.17-3.23-13.76-8.93-16.77-17.1-3.01-8.17-3.55-19.68-1.61-34.52l1.61-11.29h39.03l-1.93,14.52c-1.08,7.96-1.29,14.09-.64,18.39.64,4.09,2.04,6.99,4.19,8.71,2.37,1.51,5.16,2.26,8.39,2.26,4.73,0,8.71-1.72,11.93-5.16,3.44-3.66,5.91-10.65,7.42-20.97,1.29-7.96.86-13.87-1.29-17.74-1.94-4.09-5.38-7.31-10.32-9.68-4.95-2.58-11.51-5.7-19.68-9.35-7.1-3.23-12.8-7.1-17.1-11.61-4.09-4.52-6.88-10.22-8.39-17.1-1.29-6.88-1.29-15.27,0-25.16,1.72-12.47,4.84-22.58,9.35-30.32,4.52-7.74,10.86-13.33,19.03-16.77,8.39-3.66,19.25-5.48,32.58-5.48,17.42,0,30.11,3.76,38.07,11.29,8.17,7.31,11.18,18.39,9.03,33.23l-3.23,22.9h-37.42l1.94-11.61c1.29-9.68,1.08-16.45-.65-20.32-1.72-3.87-5.48-5.81-11.29-5.81s-10.11,1.72-12.9,5.16c-2.58,3.44-4.52,9.03-5.81,16.77-.86,6.45-.32,11.61,1.61,15.48,1.93,3.87,4.84,6.99,8.71,9.35,4.09,2.15,9.14,4.41,15.16,6.77,9.03,3.66,16.24,7.42,21.61,11.29,5.59,3.66,9.25,8.82,10.97,15.48,1.93,6.45,2.04,15.81.32,28.06-1.93,13.76-5.81,24.73-11.61,32.9-5.81,7.96-12.9,13.66-21.29,17.1-8.39,3.44-17.53,5.16-27.42,5.16Z"/>
  <path class="cls-1" d="m747.94,367c-7.74,0-14.84-.54-21.29-1.61-6.24-1.08-11.51-3.33-15.81-6.78-4.09-3.44-6.99-8.49-8.71-15.16-1.72-6.88-1.72-16.13,0-27.74l20-143.23h37.42l-21.61,153.87c-.65,4.52-.43,8.17.65,10.97,1.07,2.58,2.69,4.3,4.84,5.16,2.15.86,4.62,1.29,7.42,1.29s5.38-.43,7.74-1.29c2.58-.86,4.73-2.58,6.45-5.16,1.93-2.8,3.12-6.45,3.55-10.97l21.61-153.87h37.42l-20,143.23c-1.51,11.4-4.09,20.54-7.74,27.42-3.44,6.88-7.74,12.04-12.9,15.48-5.16,3.44-11.08,5.7-17.74,6.78-6.67,1.07-13.76,1.61-21.29,1.61Z"/>
  <path class="cls-1" d="m613.96,365.06l11.61-80.97-20.32-109.68h37.42l8.39,57.1.64,12.26,3.87-12.26,25.81-57.1h34.52l-53.23,111.62-11.29,79.03h-37.42Z"/>
  <path class="cls-1" d="m472.16,365.06l27.1-190.65h67.74c12.69,0,21.83,2.9,27.42,8.71,5.81,5.59,7.96,13.44,6.45,23.55l-4.52,32.9c-1.08,8.6-3.33,16.67-6.78,24.19-3.23,7.31-7.96,13.23-14.19,17.74-6.24,4.52-14.52,6.78-24.84,6.78h-28.39l-10.97,76.78h-39.03Zm52.9-97.42h14.52c5.16,0,9.35-2.47,12.58-7.42,3.44-4.95,5.91-13.12,7.42-24.52l1.61-12.9c1.51-10.11,1.51-17.31,0-21.61-1.51-4.3-4.3-6.45-8.39-6.45h-17.42l-10.32,72.9Z"/>
  <path class="cls-1" d="m401.45,368.45c-10.75,0-20-1.29-27.74-3.87-7.74-2.37-13.33-7.42-16.77-15.16-3.44-7.96-4.09-19.68-1.94-35.16l14.19-100c1.72-11.4,5.27-20.22,10.65-26.45,5.38-6.24,12.37-10.54,20.97-12.9,8.6-2.58,18.17-3.87,28.71-3.87s20,1.29,27.74,3.87c7.96,2.58,13.76,6.99,17.42,13.23,3.87,6.24,5.05,14.95,3.55,26.13l-14.19,99.68c-2.15,15.7-6.13,27.53-11.94,35.49-5.81,7.74-13.01,12.8-21.61,15.16-8.39,2.58-18.06,3.87-29.03,3.87Zm3.23-21.94c3.01,0,5.91-.43,8.71-1.29,2.8-1.08,5.16-2.9,7.1-5.48,2.15-2.79,3.55-6.67,4.19-11.61l16.13-115.49c.86-5.16.54-9.03-.97-11.61-1.29-2.8-3.23-4.62-5.81-5.48-2.37-.86-5.05-1.29-8.06-1.29s-5.91.43-8.71,1.29c-2.8.86-5.16,2.69-7.1,5.48-1.94,2.58-3.33,6.45-4.19,11.61l-16.13,115.49c-.65,4.95-.32,8.82.97,11.61,1.29,2.58,3.12,4.41,5.48,5.48,2.58.86,5.38,1.29,8.39,1.29Z"/>
</svg>