<?xml version="1.0" encoding="UTF-8"?>
<svg id="Capa_2" xmlns="http://www.w3.org/2000/svg" xmlns:xlink="http://www.w3.org/1999/xlink" version="1.1" viewBox="0 0 510 110.2">
  <!-- Generator: Adobe Illustrator 29.2.1, SVG Export Plug-In . SVG Version: 2.1.0 Build 116)  -->
  <defs>
    <style>
      .st0 {
      isolation: isolate;
      }

      .st1 {
      fill: url(#Degradado_sin_nombre);
      }

      .st2 {
      fill: #100c08;
      }
    </style>
    <linearGradient id="Degradado_sin_nombre" data-name="Degradado sin nombre" x1="152.8" y1="-2035.2" x2="44.9" y2="-2054.2" gradientTransform="translate(-1321.2 -1461.1) rotate(135)" gradientUnits="userSpaceOnUse">
      <stop offset="0" stop-color="#52a532"/>
      <stop offset=".5" stop-color="#ffe400"/>
      <stop offset=".6" stop-color="#f3d500"/>
      <stop offset=".7" stop-color="#eeae03"/>
      <stop offset=".9" stop-color="#e57806"/>
      <stop offset=".9" stop-color="#e36608"/>
    </linearGradient>
  </defs>
  <g>
    <path class="st1" d="M69.2,69.2c-2.4,2.4,13.2,22.1,15.7,24.5s6.4,2.5,8.9,0c2.4-2.4,2.4-6.4,0-8.9-2.4-2.4-22.1-18.1-24.5-15.6h0ZM40.1,40.1c2.5-2.5-13.2-22.1-15.6-24.5-2.5-2.4-6.4-2.4-8.9,0-2.4,2.5-2.4,6.4,0,8.9s22.1,18.1,24.5,15.7h0ZM73,64c-1.6,3.1,19.4,16.9,22.5,18.5,3.1,1.6,6.9.3,8.5-2.7,1.6-3.1.3-6.9-2.8-8.4-3.1-1.6-26.6-10.4-28.2-7.3ZM36.3,45.3c1.6-3.1-19.4-16.9-22.5-18.5-3.1-1.6-6.9-.4-8.4,2.7-1.6,3.1-.3,6.9,2.7,8.5,3.1,1.6,26.6,10.4,28.2,7.3h0ZM75,57.9c-.5,3.4,23.6,10.1,27.1,10.6,3.4.6,6.7-1.8,7.2-5.2.5-3.4-1.8-6.6-5.2-7.2-3.4-.5-28.5-1.7-29,1.8ZM34.3,51.4c.5-3.4-23.7-10.1-27.1-10.7-3.4-.5-6.6,1.8-7.2,5.2-.5,3.4,1.8,6.6,5.2,7.2,3.4.5,28.5,1.7,29.1-1.8h0ZM102,40.8c-3.4.5-27.6,7.2-27.1,10.7s25.6,2.3,29,1.8c3.4-.5,5.8-3.8,5.2-7.2-.5-3.4-3.8-5.8-7.2-5.2h0ZM7.3,68.5c3.4-.5,27.6-7.2,27.1-10.7-.5-3.4-25.6-2.3-29-1.8-3.4.5-5.8,3.8-5.2,7.2.5,3.4,3.8,5.8,7.2,5.2h0ZM95.4,26.8c-3.1,1.6-24,15.4-22.5,18.5,1.6,3.1,25.1-5.7,28.2-7.3,3.1-1.6,4.3-5.4,2.8-8.5-1.6-3.1-5.4-4.3-8.5-2.7h0ZM13.9,82.5c3.1-1.6,24-15.4,22.5-18.5-1.6-3.1-25.1,5.7-28.2,7.3s-4.3,5.4-2.7,8.4c1.6,3.1,5.4,4.3,8.4,2.7h0ZM69.2,40.1c2.4,2.5,22.1-13.2,24.5-15.6,2.5-2.5,2.5-6.4,0-8.9-2.4-2.4-6.4-2.4-8.9,0s-18.1,22.1-15.6,24.5h0ZM24.5,93.7c2.5-2.4,18.1-22.1,15.6-24.5-2.5-2.4-22.1,13.2-24.5,15.7s-2.4,6.4,0,8.9c2.5,2.4,6.4,2.4,8.9,0h0ZM64,36.3c3.1,1.6,16.9-19.4,18.5-22.5,1.6-3.1.3-6.9-2.7-8.5-3.1-1.6-6.9-.3-8.5,2.8-1.6,3.1-10.4,26.6-7.3,28.2h0ZM45.3,73c-3.1-1.6-16.9,19.4-18.5,22.5-1.6,3.1-.4,6.9,2.7,8.4,3.1,1.6,6.9.3,8.5-2.7,1.6-3.1,10.4-26.6,7.3-28.2h0ZM57.9,34.3c3.4.5,10.1-23.6,10.6-27.1.6-3.4-1.8-6.7-5.2-7.2-3.4-.5-6.6,1.8-7.2,5.2-.5,3.4-1.7,28.5,1.8,29h0ZM51.5,75c-3.4-.5-10.1,23.7-10.7,27.1s1.8,6.6,5.2,7.2c3.4.5,6.6-1.8,7.2-5.2s1.7-28.5-1.8-29.1ZM51.5,34.3c3.4-.5,2.3-25.6,1.8-29-.5-3.4-3.8-5.8-7.2-5.2-3.4.5-5.8,3.8-5.2,7.2.5,3.4,7.2,27.6,10.7,27.1ZM57.9,75c-3.4.6-2.3,25.6-1.8,29.1.5,3.4,3.8,5.8,7.2,5.2,3.4-.5,5.8-3.8,5.2-7.2-.5-3.4-7.2-27.6-10.6-27.1ZM45.3,36.3c3.1-1.6-5.7-25.1-7.3-28.2-1.6-3.1-5.4-4.3-8.5-2.8-3.1,1.6-4.3,5.4-2.7,8.5,1.6,3.1,15.4,24,18.5,22.5h0ZM64,73c-3.1,1.6,5.7,25.1,7.3,28.2,1.6,3.1,5.4,4.3,8.4,2.7s4.3-5.4,2.7-8.4c-1.6-3.1-15.4-24.1-18.5-22.5h0Z"/>
    <path class="st2" d="M159.5,19.1l-2.6,6.5c-5.8-2.1-11-3.5-14.2-3.5-5.2,0-10.6,1.6-10.6,7.6s6.1,7.9,15.2,10.7c9.6,2.9,14.3,7.9,14.3,16.5s-8.9,18.4-21.8,18.4-13.4-1.6-19.1-4.9l3-7c5.8,3.2,11,5,16,5,8.2,0,13.4-4.3,13.4-10.4s-3.3-7.8-9.8-9.7c-17.4-4.4-20-12.2-20-18.4s5.3-14.7,19.4-14.7,10.6,1.1,16.8,3.9M195.6,53.1c0,10.7-3.4,15.6-10.7,15.6s-10.7-4.8-10.7-15.6,3.4-15.2,10.7-15.2,10.7,4.4,10.7,15.2M203.3,53.1c0-14.8-6-22-18.4-22s-18.4,7.1-18.4,22,5.6,22,18.4,22,18.4-7.3,18.4-22M218.6,16.1h-7.7v58.4h7.7V16.1h0ZM233.4,61.6c0-4.2,2.3-6.7,8.3-6.7h10v10.1c-3,1.5-7.7,3.3-9.9,3.3-6.5,0-8.5-3.1-8.5-6.7M230.6,41c3.4-1.6,9-3.4,12.1-3.4,5.5,0,8.9,2.3,8.9,7.5v4.3h-10.7c-12.2,0-15.3,7-15.3,13.2s3,12.4,13.9,12.4,8.7-1.9,12.4-4.4l1.7,4.8,6.9-2.3-1.3-5.2v-23.5c0-10.7-7.5-13.2-16.1-13.2s-9.5,1.4-14.4,3.7l1.9,6.1M283.7,38.8c1.3,0,2.8.2,4,.4l.8-7.4c-1.5-.3-2.3-.7-3.7-.7-2.9,0-4.8,1.5-8.7,6.5l-1.9-6.9-7,2.2,1.6,7.3v34.1h7.7v-30.9c3.2-3.3,5.1-4.8,7.2-4.8M311.4,74.5V23h17.3v-6.9h-42.5v6.9h17.2v51.5h8ZM344.6,38.8c1.3,0,2.8.2,4,.4l.8-7.4c-1.5-.3-2.3-.7-3.7-.7-2.9,0-4.8,1.5-8.7,6.5l-1.9-6.9-7,2.2,1.6,7.3v34.2h7.7v-30.9c3.2-3.3,5.1-4.8,7.2-4.8M358.8,61.6c0-4.2,2.3-6.7,8.3-6.7h10v10.2c-3,1.5-7.7,3.3-9.9,3.3-6.5,0-8.5-3.1-8.5-6.7M356,41c3.4-1.6,9-3.4,12.1-3.4,5.5,0,8.9,2.3,8.9,7.5v4.3h-10.7c-12.2,0-15.3,7-15.3,13.2s3,12.4,13.9,12.4,8.7-1.9,12.5-4.4l1.7,4.8,6.9-2.3-1.3-5.2v-23.5c0-10.7-7.5-13.2-16.1-13.2s-9.5,1.4-14.4,3.7l1.9,6.1M409.8,38c2.8,0,7.2,1.8,9.1,3v23.8c-2.7,1.2-8.1,3.1-9.4,3.1-3.6,0-9.9-.6-9.9-16.9s4.9-13,10.2-13M407.5,75c2.1,0,8.2-2,11.8-4.4l1.7,4.8,6.9-2.3-1.2-5.2V16.1h-7.7v18.3c-2.5-1.4-7-3.2-10.6-3.2-8,0-16.5,5.2-16.5,20s5.8,23.8,15.6,23.8M441.9,50c.2-9.7,5.1-12.6,10.3-12.6s9.8,3.4,9.8,12.6h-20.1M466.5,64.6c-3.4,1.2-11.5,3.7-13.1,3.7-7.9,0-11-5.1-11.4-12.5h27.6v-3.3c0-14.4-5.2-21.3-17.1-21.3s-18.4,7.1-18.4,21.9,6.1,22.1,18.8,22.1,9.2-1.6,15.2-4l-1.6-6.6M490.9,58.8l10.3,15.7h8.9v-1.4l-14.5-21.4,12.8-18.6v-1.4h-8.3l-8.8,13.7-9-13.7h-8.4v1.4l12.4,19.2-14.3,20.6v1.6h8.2l10.7-15.7h0Z"/>
  </g>
  <g class="st0">
    <g class="st0">
      <path class="st2" d="M122.5,104.3v-15.8h10.1v1.9h-7.7v4.9h7v1.9h-7v5.1h7.7v1.9h-10.1Z"/>
      <path class="st2" d="M135.4,104.3v-15.8h2.4v13.9h7.2v1.9h-9.6Z"/>
      <path class="st2" d="M153.2,104.3v-15.8h9.9v1.9h-7.5v5h6.2v1.9h-6.2v7h-2.4Z"/>
      <path class="st2" d="M171.4,104.6c-1.1,0-2.1-.2-3.1-.7-.9-.4-1.6-1.1-2.2-2-.5-.9-.8-2.1-.8-3.5v-9.9h2.4v9.9c0,1.4.3,2.4,1,3.1.7.6,1.6,1,2.7,1s2-.3,2.7-1c.7-.6,1-1.7,1-3.1v-9.9h2.4v9.9c0,1.4-.3,2.6-.8,3.5-.6.9-1.3,1.6-2.2,2-.9.4-1.9.7-3.1.7Z"/>
      <path class="st2" d="M184.3,104.3v-13.9h-4.7v-1.9h11.7v1.9h-4.7v13.9h-2.4Z"/>
      <path class="st2" d="M199.5,104.6c-1.1,0-2.1-.2-3.1-.7-.9-.4-1.6-1.1-2.2-2-.5-.9-.8-2.1-.8-3.5v-9.9h2.4v9.9c0,1.4.3,2.4,1,3.1.7.6,1.6,1,2.7,1s2-.3,2.7-1c.7-.6,1-1.7,1-3.1v-9.9h2.4v9.9c0,1.4-.3,2.6-.8,3.5-.6.9-1.3,1.6-2.2,2-.9.4-1.9.7-3.1.7Z"/>
      <path class="st2" d="M208.6,104.3v-15.8h5.4c1.2,0,2.3.2,3.1.6.8.4,1.4,1,1.8,1.7.4.7.6,1.5.6,2.4s-.3,1.9-.8,2.7c-.5.8-1.3,1.4-2.4,1.7l3.4,6.7h-2.8l-3.1-6.4h-2.8v6.4h-2.4ZM211,96.1h2.9c1.1,0,1.9-.3,2.4-.8.5-.5.8-1.2.8-2.1s-.2-1.5-.7-2c-.5-.5-1.3-.8-2.4-.8h-2.9v5.6Z"/>
      <path class="st2" d="M229.7,104.6c-1.6,0-2.9-.3-4.1-1-1.2-.7-2.1-1.7-2.8-2.9-.7-1.2-1-2.6-1-4.3s.3-3,1-4.3c.7-1.2,1.6-2.2,2.8-2.9,1.2-.7,2.5-1,4.1-1s2.9.3,4.1,1c1.2.7,2.1,1.7,2.7,2.9.7,1.2,1,2.6,1,4.3s-.3,3-1,4.3c-.7,1.2-1.6,2.2-2.7,2.9-1.2.7-2.5,1-4.1,1ZM229.7,102.4c1.1,0,2-.2,2.8-.7s1.4-1.2,1.9-2.1c.5-.9.7-2,.7-3.2s-.2-2.3-.7-3.2c-.5-.9-1.1-1.6-1.9-2.1-.8-.5-1.8-.7-2.8-.7s-2,.2-2.8.7c-.8.5-1.4,1.2-1.9,2.1-.4.9-.7,2-.7,3.2s.2,2.3.7,3.2c.4.9,1.1,1.6,1.9,2.1.8.5,1.8.7,2.8.7Z"/>
      <path class="st2" d="M253.2,104.6c-1.6,0-2.9-.3-4.1-1-1.2-.7-2.1-1.7-2.8-2.9-.7-1.2-1-2.6-1-4.3s.3-3,1-4.3c.7-1.2,1.6-2.2,2.8-2.9,1.2-.7,2.5-1,4.1-1s2.9.3,4.1,1c1.2.7,2.1,1.7,2.7,2.9.7,1.2,1,2.6,1,4.3s-.3,2.9-.9,4.1c-.6,1.2-1.5,2.2-2.5,2.8l3.8,3.9h-3l-2.8-3c-.7.2-1.5.3-2.3.3ZM253.2,102.4c1.1,0,2-.2,2.8-.7.8-.5,1.4-1.2,1.9-2.1.5-.9.7-2,.7-3.2s-.2-2.3-.7-3.2c-.5-.9-1.1-1.6-1.9-2.1-.8-.5-1.8-.7-2.8-.7s-2,.2-2.8.7c-.8.5-1.4,1.2-1.9,2.1-.4.9-.7,2-.7,3.2s.2,2.3.7,3.2c.4.9,1.1,1.6,1.9,2.1.8.5,1.8.7,2.8.7Z"/>
      <path class="st2" d="M269.6,104.6c-1.1,0-2.1-.2-3.1-.7-.9-.4-1.6-1.1-2.2-2-.5-.9-.8-2.1-.8-3.5v-9.9h2.4v9.9c0,1.4.3,2.4,1,3.1.7.6,1.6,1,2.7,1s2-.3,2.7-1c.7-.6,1-1.7,1-3.1v-9.9h2.4v9.9c0,1.4-.3,2.6-.8,3.5-.6.9-1.3,1.6-2.2,2-.9.4-1.9.7-3.1.7Z"/>
      <path class="st2" d="M278.8,104.3v-15.8h10.1v1.9h-7.7v4.9h7v1.9h-7v5.1h7.7v1.9h-10.1Z"/>
      <path class="st2" d="M297.4,104.3v-15.8h10.1v1.9h-7.7v4.9h7v1.9h-7v5.1h7.7v1.9h-10.1Z"/>
      <path class="st2" d="M310.3,104.3v-15.8h2.4v13.9h7.2v1.9h-9.6Z"/>
      <path class="st2" d="M322.4,104.3v-15.8h10.1v1.9h-7.7v4.9h7v1.9h-7v5.1h7.7v1.9h-10.1Z"/>
      <path class="st2" d="M342.2,104.6c-1.5,0-2.8-.3-3.9-1s-2-1.6-2.6-2.8c-.6-1.2-.9-2.6-.9-4.3s.3-3,.9-4.3,1.5-2.2,2.7-2.9c1.2-.7,2.5-1.1,4.1-1.1s3.3.4,4.5,1.3c1.2.9,2,2.1,2.3,3.6h-2.7c-.2-.8-.7-1.5-1.4-2-.7-.5-1.6-.7-2.7-.7-1.7,0-3,.5-3.9,1.6-.9,1.1-1.4,2.5-1.4,4.4s.5,3.4,1.4,4.4,2.2,1.6,3.7,1.6,2.7-.4,3.5-1.3,1.3-2.1,1.4-3.5h-4.3v-1.9h6.7v8.6h-2.2l-.2-2.3c-.5.8-1.2,1.5-2,1.9-.8.5-1.8.7-3.1.7Z"/>
      <path class="st2" d="M352.6,104.3v-15.8h2.4v15.8h-2.4Z"/>
      <path class="st2" d="M358.2,104.3v-15.8h2.8l5.4,10.5,5.3-10.5h2.8v15.8h-2.4v-11.7l-4.8,9.4h-1.9l-4.9-9.4v11.7h-2.4Z"/>
      <path class="st2" d="M385,104.6c-1.6,0-2.9-.3-4.1-1-1.2-.7-2.1-1.7-2.8-2.9-.7-1.2-1-2.6-1-4.3s.3-3,1-4.3c.7-1.2,1.6-2.2,2.8-2.9,1.2-.7,2.5-1,4.1-1s2.9.3,4.1,1c1.2.7,2.1,1.7,2.7,2.9.7,1.2,1,2.6,1,4.3s-.3,3-1,4.3c-.7,1.2-1.6,2.2-2.7,2.9-1.2.7-2.5,1-4.1,1ZM385,102.4c1.1,0,2-.2,2.8-.7s1.4-1.2,1.9-2.1.7-2,.7-3.2-.2-2.3-.7-3.2c-.5-.9-1.1-1.6-1.9-2.1-.8-.5-1.8-.7-2.8-.7s-2,.2-2.8.7c-.8.5-1.4,1.2-1.9,2.1-.4.9-.7,2-.7,3.2s.2,2.3.7,3.2c.4.9,1.1,1.6,1.9,2.1s1.8.7,2.8.7Z"/>
      <path class="st2" d="M400.8,104.6c-1.2,0-2.2-.2-3-.6-.9-.4-1.6-1-2-1.7-.5-.8-.7-1.7-.8-2.7h2.5c0,.8.3,1.6.9,2.1s1.4.9,2.4.9,1.6-.2,2.2-.7.8-1,.8-1.7-.1-1-.4-1.4c-.2-.3-.6-.6-1-.9-.4-.2-.9-.4-1.5-.6-.6-.2-1.1-.4-1.8-.6-1.2-.4-2.1-.9-2.7-1.6-.6-.6-.9-1.5-.9-2.6,0-.9.2-1.7.6-2.3.4-.7,1-1.2,1.8-1.5.8-.4,1.7-.6,2.7-.6s1.9.2,2.7.6c.8.4,1.4.9,1.8,1.6.4.7.7,1.4.7,2.3h-2.5c0-.4-.1-.8-.3-1.2s-.5-.7-.9-.9c-.4-.2-.9-.4-1.5-.4-.8,0-1.4.2-1.9.6-.5.4-.7.9-.7,1.6s.2,1.1.5,1.4c.4.3.9.6,1.5.8.6.2,1.4.5,2.2.8.8.3,1.5.6,2.1.9.6.4,1.1.8,1.5,1.4.4.6.6,1.3.6,2.2s-.2,1.5-.6,2.2-1,1.2-1.8,1.7-1.8.6-3,.6Z"/>
    </g>
  </g>
</svg>